<svg xmlns="http://www.w3.org/2000/svg" width="520" height="432" viewBox="0 0 520 432" role="img" aria-labelledby="title desc">
  <title id="title">Most used languages</title>
  <desc id="desc">Most used languages across public source repositories owned by J1angJJ.</desc>
  <rect x="0.5" y="0.5" width="519" height="431" rx="6" fill="#ffffff" stroke="#d0d7de"/>
  <rect x="16" y="16" width="488" height="86" rx="6" fill="#f6f8fa"/>
  <text x="28" y="34" fill="#24292f" font-family="Segoe UI, Arial, sans-serif" font-size="18" font-weight="700">Most Used Languages</text>
  <text x="28" y="56" fill="#6e7781" font-family="Segoe UI, Arial, sans-serif" font-size="12">Public source repositories, sorted by total bytes</text>
  <g transform="translate(28 76)">
    <clipPath id="total-bar-clip"><rect width="464" height="14" rx="7"/></clipPath>
    <rect width="464" height="14" rx="7" fill="#eaeef2"/>
    <g clip-path="url(#total-bar-clip)"><rect x="0.000%" y="0" width="44.288%" height="14" fill="#3572A5" stroke="#ffffff" stroke-width="1"/><rect x="44.288%" y="0" width="39.170%" height="14" fill="#f34b7d" stroke="#ffffff" stroke-width="1"/><rect x="83.458%" y="0" width="12.009%" height="14" fill="#e34c26" stroke="#ffffff" stroke-width="1"/><rect x="95.467%" y="0" width="2.262%" height="14" fill="#DA3434" stroke="#ffffff" stroke-width="1"/><rect x="97.730%" y="0" width="1.415%" height="14" fill="#3178c6" stroke="#ffffff" stroke-width="1"/><rect x="99.145%" y="0" width="0.368%" height="14" fill="#6e7781" stroke="#ffffff" stroke-width="1"/></g>
  </g>
  <g font-family="Segoe UI, Arial, sans-serif"><circle cx="34" cy="113" r="5.5" fill="#3572A5"/><text x="48" y="118" fill="#57606a" font-size="14" font-weight="600">Python</text><text x="492" y="118" fill="#6e7781" font-size="13" text-anchor="end">44.3%</text><rect x="28" y="131" width="464" height="12" rx="6" fill="#eaeef2"/><rect x="28" y="131" width="205.5" height="12" rx="6" fill="#3572A5"/><circle cx="34" cy="161" r="5.5" fill="#f34b7d"/><text x="48" y="166" fill="#57606a" font-size="14" font-weight="600">C++</text><text x="492" y="166" fill="#6e7781" font-size="13" text-anchor="end">39.2%</text><rect x="28" y="179" width="464" height="12" rx="6" fill="#eaeef2"/><rect x="28" y="179" width="181.7" height="12" rx="6" fill="#f34b7d"/><circle cx="34" cy="209" r="5.5" fill="#e34c26"/><text x="48" y="214" fill="#57606a" font-size="14" font-weight="600">HTML</text><text x="492" y="214" fill="#6e7781" font-size="13" text-anchor="end">12.0%</text><rect x="28" y="227" width="464" height="12" rx="6" fill="#eaeef2"/><rect x="28" y="227" width="55.7" height="12" rx="6" fill="#e34c26"/><circle cx="34" cy="257" r="5.5" fill="#DA3434"/><text x="48" y="262" fill="#57606a" font-size="14" font-weight="600">CMake</text><text x="492" y="262" fill="#6e7781" font-size="13" text-anchor="end">2.3%</text><rect x="28" y="275" width="464" height="12" rx="6" fill="#eaeef2"/><rect x="28" y="275" width="10.5" height="12" rx="6" fill="#DA3434"/><circle cx="34" cy="305" r="5.5" fill="#3178c6"/><text x="48" y="310" fill="#57606a" font-size="14" font-weight="600">TypeScript</text><text x="492" y="310" fill="#6e7781" font-size="13" text-anchor="end">1.4%</text><rect x="28" y="323" width="464" height="12" rx="6" fill="#eaeef2"/><rect x="28" y="323" width="6.6" height="12" rx="6" fill="#3178c6"/><circle cx="34" cy="353" r="5.5" fill="#6e7781"/><text x="48" y="358" fill="#57606a" font-size="14" font-weight="600">Batchfile</text><text x="492" y="358" fill="#6e7781" font-size="13" text-anchor="end">0.4%</text><rect x="28" y="371" width="464" height="12" rx="6" fill="#eaeef2"/><rect x="28" y="371" width="3.0" height="12" rx="6" fill="#6e7781"/></g>
</svg>
