<svg xmlns="http://www.w3.org/2000/svg" width="520" height="432" viewBox="0 0 520 432" role="img" aria-labelledby="title desc">
  <title id="title">Most used languages</title>
  <desc id="desc">Most used languages across public source repositories owned by J1angJJ.</desc>
  <rect x="0.5" y="0.5" width="519" height="431" rx="6" fill="#ffffff" stroke="#d0d7de"/>
  <rect x="16" y="16" width="488" height="86" rx="6" fill="#f6f8fa"/>
  <text x="28" y="34" fill="#24292f" font-family="Segoe UI, Arial, sans-serif" font-size="18" font-weight="700">Most Used Languages</text>
  <text x="28" y="56" fill="#6e7781" font-family="Segoe UI, Arial, sans-serif" font-size="12">Public source repositories, sorted by total bytes</text>
  <g transform="translate(28 76)">
    <clipPath id="total-bar-clip"><rect width="464" height="14" rx="7"/></clipPath>
    <rect width="464" height="14" rx="7" fill="#eaeef2"/>
    <g clip-path="url(#total-bar-clip)"><rect x="0.000%" y="0" width="44.106%" height="14" fill="#3572A5" stroke="#ffffff" stroke-width="1"/><rect x="44.106%" y="0" width="20.854%" height="14" fill="#f34b7d" stroke="#ffffff" stroke-width="1"/><rect x="64.959%" y="0" width="17.116%" height="14" fill="#6e7781" stroke="#ffffff" stroke-width="1"/><rect x="82.075%" y="0" width="5.781%" height="14" fill="#e34c26" stroke="#ffffff" stroke-width="1"/><rect x="87.856%" y="0" width="4.513%" height="14" fill="#555555" stroke="#ffffff" stroke-width="1"/><rect x="92.368%" y="0" width="2.330%" height="14" fill="#6e7781" stroke="#ffffff" stroke-width="1"/></g>
  </g>
  <g font-family="Segoe UI, Arial, sans-serif"><circle cx="34" cy="113" r="5.5" fill="#3572A5"/><text x="48" y="118" fill="#57606a" font-size="14" font-weight="600">Python</text><text x="492" y="118" fill="#6e7781" font-size="13" text-anchor="end">44.1%</text><rect x="28" y="131" width="464" height="12" rx="6" fill="#eaeef2"/><rect x="28" y="131" width="204.6" height="12" rx="6" fill="#3572A5"/><circle cx="34" cy="161" r="5.5" fill="#f34b7d"/><text x="48" y="166" fill="#57606a" font-size="14" font-weight="600">C++</text><text x="492" y="166" fill="#6e7781" font-size="13" text-anchor="end">20.9%</text><rect x="28" y="179" width="464" height="12" rx="6" fill="#eaeef2"/><rect x="28" y="179" width="96.8" height="12" rx="6" fill="#f34b7d"/><circle cx="34" cy="209" r="5.5" fill="#6e7781"/><text x="48" y="214" fill="#57606a" font-size="14" font-weight="600">Verilog</text><text x="492" y="214" fill="#6e7781" font-size="13" text-anchor="end">17.1%</text><rect x="28" y="227" width="464" height="12" rx="6" fill="#eaeef2"/><rect x="28" y="227" width="79.4" height="12" rx="6" fill="#6e7781"/><circle cx="34" cy="257" r="5.5" fill="#e34c26"/><text x="48" y="262" fill="#57606a" font-size="14" font-weight="600">HTML</text><text x="492" y="262" fill="#6e7781" font-size="13" text-anchor="end">5.8%</text><rect x="28" y="275" width="464" height="12" rx="6" fill="#eaeef2"/><rect x="28" y="275" width="26.8" height="12" rx="6" fill="#e34c26"/><circle cx="34" cy="305" r="5.5" fill="#555555"/><text x="48" y="310" fill="#57606a" font-size="14" font-weight="600">C</text><text x="492" y="310" fill="#6e7781" font-size="13" text-anchor="end">4.5%</text><rect x="28" y="323" width="464" height="12" rx="6" fill="#eaeef2"/><rect x="28" y="323" width="20.9" height="12" rx="6" fill="#555555"/><circle cx="34" cy="353" r="5.5" fill="#6e7781"/><text x="48" y="358" fill="#57606a" font-size="14" font-weight="600">Assembly</text><text x="492" y="358" fill="#6e7781" font-size="13" text-anchor="end">2.3%</text><rect x="28" y="371" width="464" height="12" rx="6" fill="#eaeef2"/><rect x="28" y="371" width="10.8" height="12" rx="6" fill="#6e7781"/></g>
</svg>
