<svg xmlns="http://www.w3.org/2000/svg" width="520" height="432" viewBox="0 0 520 432" role="img" aria-labelledby="title desc">
  <title id="title">Most used languages</title>
  <desc id="desc">Most used languages across public source repositories owned by J1angJJ.</desc>
  <rect x="0.5" y="0.5" width="519" height="431" rx="6" fill="#ffffff" stroke="#d0d7de"/>
  <rect x="16" y="16" width="488" height="86" rx="6" fill="#f6f8fa"/>
  <text x="28" y="34" fill="#24292f" font-family="Segoe UI, Arial, sans-serif" font-size="18" font-weight="700">Most Used Languages</text>
  <text x="28" y="56" fill="#6e7781" font-family="Segoe UI, Arial, sans-serif" font-size="12">Public source repositories, sorted by total bytes</text>
  <g transform="translate(28 76)">
    <clipPath id="total-bar-clip"><rect width="464" height="14" rx="7"/></clipPath>
    <rect width="464" height="14" rx="7" fill="#eaeef2"/>
    <g clip-path="url(#total-bar-clip)"><rect x="0.000%" y="0" width="73.637%" height="14" fill="#3572A5" stroke="#ffffff" stroke-width="1"/><rect x="73.637%" y="0" width="22.320%" height="14" fill="#e34c26" stroke="#ffffff" stroke-width="1"/><rect x="95.956%" y="0" width="2.630%" height="14" fill="#3178c6" stroke="#ffffff" stroke-width="1"/><rect x="98.587%" y="0" width="0.683%" height="14" fill="#6e7781" stroke="#ffffff" stroke-width="1"/><rect x="99.270%" y="0" width="0.314%" height="14" fill="#6e7781" stroke="#ffffff" stroke-width="1"/><rect x="99.584%" y="0" width="0.228%" height="14" fill="#f1e05a" stroke="#ffffff" stroke-width="1"/></g>
  </g>
  <g font-family="Segoe UI, Arial, sans-serif"><circle cx="34" cy="113" r="5.5" fill="#3572A5"/><text x="48" y="118" fill="#57606a" font-size="14" font-weight="600">Python</text><text x="492" y="118" fill="#6e7781" font-size="13" text-anchor="end">73.6%</text><rect x="28" y="131" width="464" height="12" rx="6" fill="#eaeef2"/><rect x="28" y="131" width="341.7" height="12" rx="6" fill="#3572A5"/><circle cx="34" cy="161" r="5.5" fill="#e34c26"/><text x="48" y="166" fill="#57606a" font-size="14" font-weight="600">HTML</text><text x="492" y="166" fill="#6e7781" font-size="13" text-anchor="end">22.3%</text><rect x="28" y="179" width="464" height="12" rx="6" fill="#eaeef2"/><rect x="28" y="179" width="103.6" height="12" rx="6" fill="#e34c26"/><circle cx="34" cy="209" r="5.5" fill="#3178c6"/><text x="48" y="214" fill="#57606a" font-size="14" font-weight="600">TypeScript</text><text x="492" y="214" fill="#6e7781" font-size="13" text-anchor="end">2.6%</text><rect x="28" y="227" width="464" height="12" rx="6" fill="#eaeef2"/><rect x="28" y="227" width="12.2" height="12" rx="6" fill="#3178c6"/><circle cx="34" cy="257" r="5.5" fill="#6e7781"/><text x="48" y="262" fill="#57606a" font-size="14" font-weight="600">Batchfile</text><text x="492" y="262" fill="#6e7781" font-size="13" text-anchor="end">0.7%</text><rect x="28" y="275" width="464" height="12" rx="6" fill="#eaeef2"/><rect x="28" y="275" width="3.2" height="12" rx="6" fill="#6e7781"/><circle cx="34" cy="305" r="5.5" fill="#6e7781"/><text x="48" y="310" fill="#57606a" font-size="14" font-weight="600">PowerShell</text><text x="492" y="310" fill="#6e7781" font-size="13" text-anchor="end">0.3%</text><rect x="28" y="323" width="464" height="12" rx="6" fill="#eaeef2"/><rect x="28" y="323" width="3.0" height="12" rx="6" fill="#6e7781"/><circle cx="34" cy="353" r="5.5" fill="#f1e05a"/><text x="48" y="358" fill="#57606a" font-size="14" font-weight="600">JavaScript</text><text x="492" y="358" fill="#6e7781" font-size="13" text-anchor="end">0.2%</text><rect x="28" y="371" width="464" height="12" rx="6" fill="#eaeef2"/><rect x="28" y="371" width="3.0" height="12" rx="6" fill="#f1e05a"/></g>
</svg>
