<svg xmlns="http://www.w3.org/2000/svg" width="520" height="432" viewBox="0 0 520 432" role="img" aria-labelledby="title desc">
  <title id="title">Most used languages</title>
  <desc id="desc">Most used languages across public source repositories owned by J1angJJ.</desc>
  <rect x="0.5" y="0.5" width="519" height="431" rx="6" fill="#0d1117" stroke="#30363d"/>
  <rect x="16" y="16" width="488" height="86" rx="6" fill="#161b22"/>
  <text x="28" y="34" fill="#e6edf3" font-family="Segoe UI, Arial, sans-serif" font-size="18" font-weight="700">Most Used Languages</text>
  <text x="28" y="56" fill="#8b949e" font-family="Segoe UI, Arial, sans-serif" font-size="12">Public source repositories, sorted by total bytes</text>
  <g transform="translate(28 76)">
    <clipPath id="total-bar-clip"><rect width="464" height="14" rx="7"/></clipPath>
    <rect width="464" height="14" rx="7" fill="#21262d"/>
    <g clip-path="url(#total-bar-clip)"><rect x="0.000%" y="0" width="29.197%" height="14" fill="#3572A5" stroke="#0d1117" stroke-width="1"/><rect x="29.197%" y="0" width="25.185%" height="14" fill="#f34b7d" stroke="#0d1117" stroke-width="1"/><rect x="54.381%" y="0" width="22.861%" height="14" fill="#6e7781" stroke="#0d1117" stroke-width="1"/><rect x="77.242%" y="0" width="7.721%" height="14" fill="#e34c26" stroke="#0d1117" stroke-width="1"/><rect x="84.964%" y="0" width="6.027%" height="14" fill="#555555" stroke="#0d1117" stroke-width="1"/><rect x="90.991%" y="0" width="3.112%" height="14" fill="#6e7781" stroke="#0d1117" stroke-width="1"/></g>
  </g>
  <g font-family="Segoe UI, Arial, sans-serif"><circle cx="34" cy="113" r="5.5" fill="#3572A5"/><text x="48" y="118" fill="#c9d1d9" font-size="14" font-weight="600">Python</text><text x="492" y="118" fill="#8b949e" font-size="13" text-anchor="end">29.2%</text><rect x="28" y="131" width="464" height="12" rx="6" fill="#21262d"/><rect x="28" y="131" width="135.5" height="12" rx="6" fill="#3572A5"/><circle cx="34" cy="161" r="5.5" fill="#f34b7d"/><text x="48" y="166" fill="#c9d1d9" font-size="14" font-weight="600">C++</text><text x="492" y="166" fill="#8b949e" font-size="13" text-anchor="end">25.2%</text><rect x="28" y="179" width="464" height="12" rx="6" fill="#21262d"/><rect x="28" y="179" width="116.9" height="12" rx="6" fill="#f34b7d"/><circle cx="34" cy="209" r="5.5" fill="#6e7781"/><text x="48" y="214" fill="#c9d1d9" font-size="14" font-weight="600">Verilog</text><text x="492" y="214" fill="#8b949e" font-size="13" text-anchor="end">22.9%</text><rect x="28" y="227" width="464" height="12" rx="6" fill="#21262d"/><rect x="28" y="227" width="106.1" height="12" rx="6" fill="#6e7781"/><circle cx="34" cy="257" r="5.5" fill="#e34c26"/><text x="48" y="262" fill="#c9d1d9" font-size="14" font-weight="600">HTML</text><text x="492" y="262" fill="#8b949e" font-size="13" text-anchor="end">7.7%</text><rect x="28" y="275" width="464" height="12" rx="6" fill="#21262d"/><rect x="28" y="275" width="35.8" height="12" rx="6" fill="#e34c26"/><circle cx="34" cy="305" r="5.5" fill="#555555"/><text x="48" y="310" fill="#c9d1d9" font-size="14" font-weight="600">C</text><text x="492" y="310" fill="#8b949e" font-size="13" text-anchor="end">6.0%</text><rect x="28" y="323" width="464" height="12" rx="6" fill="#21262d"/><rect x="28" y="323" width="28.0" height="12" rx="6" fill="#555555"/><circle cx="34" cy="353" r="5.5" fill="#6e7781"/><text x="48" y="358" fill="#c9d1d9" font-size="14" font-weight="600">Assembly</text><text x="492" y="358" fill="#8b949e" font-size="13" text-anchor="end">3.1%</text><rect x="28" y="371" width="464" height="12" rx="6" fill="#21262d"/><rect x="28" y="371" width="14.4" height="12" rx="6" fill="#6e7781"/></g>
</svg>
